<svg width="789" height="336" viewBox="0 0 789 336" fill="none" xmlns="http://www.w3.org/2000/svg">
<path d="M125.214 153.883V165.413H124.672" stroke="black" stroke-width="5" stroke-miterlimit="10"/>
<path d="M125.214 140.977V141.469" stroke="black" stroke-width="5" stroke-miterlimit="10"/>
<path d="M11.2034 165.413V13.6716H125.214V140.977" stroke="black" stroke-width="5" stroke-miterlimit="10"/>
<path d="M124.671 165.413H123.932" stroke="black" stroke-width="5" stroke-miterlimit="10"/>
<path d="M250.666 129.153H125.214V13.6716H277.491V129.153H263.783" stroke="black" stroke-width="5" stroke-miterlimit="10"/>
<path d="M293.098 129.153H277.491V13.6716H325.621V129.153H306.635" stroke="black" stroke-width="5" stroke-miterlimit="10"/>
<path d="M399.195 129.153H325.621V13.6716H423.062V129.153H413" stroke="black" stroke-width="5" stroke-miterlimit="10"/>
<path d="M548.119 129.153H423.062V13.6716H571.394V129.153H562.321" stroke="black" stroke-width="5" stroke-miterlimit="10"/>
<path d="M606.899 101.366V129.153H571.394V13.6716H606.899V23.3274" stroke="black" stroke-width="5" stroke-miterlimit="10"/>
<path d="M606.899 88.5563V101.366" stroke="black" stroke-width="5" stroke-miterlimit="10"/>
<path d="M606.899 74.564V75.9445" stroke="black" stroke-width="5" stroke-miterlimit="10"/>
<path d="M606.899 62.938V74.564" stroke="black" stroke-width="5" stroke-miterlimit="10"/>
<path d="M606.899 23.3274V51.9017" stroke="black" stroke-width="5" stroke-miterlimit="10"/>
<path d="M606.899 21.9484V13.6716H664.494V129.153H643.786" stroke="black" stroke-width="5" stroke-miterlimit="10"/>
<path d="M616.468 129.153H606.899V120.678" stroke="black" stroke-width="5" stroke-miterlimit="10"/>
<path d="M664.494 141.765V13.6716H779.69V159.895H664.494V154.699" stroke="black" stroke-width="5" stroke-miterlimit="10"/>
<path d="M664.494 167.925V159.895H779.69V323.855H664.494V181.078" stroke="black" stroke-width="5" stroke-miterlimit="10"/>
<path d="M643.933 197.732H664.494V323.855H596.248V197.732H614.641" stroke="black" stroke-width="5" stroke-miterlimit="10"/>
<path d="M573.22 179.208H596.248V292.72H548.116V179.208H556.353" stroke="black" stroke-width="5" stroke-miterlimit="10"/>
<path d="M556.354 179.208H557.389" stroke="black" stroke-width="5" stroke-miterlimit="10"/>
<path d="M534.857 179.208H548.116V292.72H372.96V202.659" stroke="black" stroke-width="5" stroke-miterlimit="10"/>
<path d="M372.96 186.794V179.208H522.035" stroke="black" stroke-width="5" stroke-miterlimit="10"/>
<path d="M372.96 202.659V292.72H322.859V179.208H372.96V185.613" stroke="black" stroke-width="5" stroke-miterlimit="10"/>
<path d="M372.96 185.613V186.204" stroke="black" stroke-width="5" stroke-miterlimit="10"/>
<path d="M283.113 179.208H322.859V292.72H241.986V179.208H269.601" stroke="black" stroke-width="5" stroke-miterlimit="10"/>
<path d="M269.602 179.208H269.849" stroke="black" stroke-width="5" stroke-miterlimit="10"/>
<path d="M234.293 179.208H241.986V292.72H195.829V179.208H217.428" stroke="black" stroke-width="5" stroke-miterlimit="10"/>
<path d="M217.428 179.208H218.316" stroke="black" stroke-width="5" stroke-miterlimit="10"/>
<path d="M147.898 195.368H125.214V321.885H195.83V195.368H172.455" stroke="black" stroke-width="5" stroke-miterlimit="10"/>
<path d="M125.214 187.485V321.885H11.2034V165.413H12.1901" stroke="black" stroke-width="5" stroke-miterlimit="10"/>
<path d="M125.214 174.872V175.562" stroke="black" stroke-width="5" stroke-miterlimit="10"/>
<path d="M125.214 165.413V174.872" stroke="black" stroke-width="5" stroke-miterlimit="10"/>
<path d="M12.1901 165.413H12.5348" stroke="black" stroke-width="5" stroke-miterlimit="10"/>
<path d="M195.828 222.316H125.214V285.279H195.828V222.316Z" stroke="black" stroke-width="2" stroke-miterlimit="10"/>
<path d="M162.302 228.08H195.829" stroke="black" stroke-width="2" stroke-miterlimit="10"/>
<path d="M125.214 228.08H159.16" stroke="black" stroke-width="2" stroke-miterlimit="10"/>
<path d="M162.267 238.426H194.054" stroke="black" stroke-width="2" stroke-miterlimit="10"/>
<path d="M159.123 238.426H159.215" stroke="black" stroke-width="2" stroke-miterlimit="10"/>
<path d="M123.439 238.426H159.123" stroke="black" stroke-width="2" stroke-miterlimit="10"/>
<path d="M162.283 233.253H193.315" stroke="black" stroke-width="2" stroke-miterlimit="10"/>
<path d="M159.123 233.253H159.233" stroke="black" stroke-width="2" stroke-miterlimit="10"/>
<path d="M122.699 233.253H159.123" stroke="black" stroke-width="2" stroke-miterlimit="10"/>
<path d="M162.322 243.648H193.315" stroke="black" stroke-width="2" stroke-miterlimit="10"/>
<path d="M159.123 243.648H159.215" stroke="black" stroke-width="2" stroke-miterlimit="10"/>
<path d="M122.699 243.648H159.123" stroke="black" stroke-width="2" stroke-miterlimit="10"/>
<path d="M162.302 280.697H193.315" stroke="black" stroke-width="2" stroke-miterlimit="10"/>
<path d="M122.699 280.697H159.123" stroke="black" stroke-width="2" stroke-miterlimit="10"/>
<path d="M162.285 270.204H194.35" stroke="black" stroke-width="2" stroke-miterlimit="10"/>
<path d="M123.735 270.204H159.271" stroke="black" stroke-width="2" stroke-miterlimit="10"/>
<path d="M162.322 274.638H193.463" stroke="black" stroke-width="2" stroke-miterlimit="10"/>
<path d="M122.847 274.638H159.141" stroke="black" stroke-width="2" stroke-miterlimit="10"/>
<path d="M162.193 248.328H192.772" stroke="black" stroke-width="2" stroke-miterlimit="10"/>
<path d="M122.157 248.328H159.123" stroke="black" stroke-width="2" stroke-miterlimit="10"/>
<path d="M162.283 253.798H192.772" stroke="black" stroke-width="2" stroke-miterlimit="10"/>
<path d="M122.157 253.798H159.178" stroke="black" stroke-width="2" stroke-miterlimit="10"/>
<path d="M162.267 264.586H192.772" stroke="black" stroke-width="2" stroke-miterlimit="10"/>
<path d="M122.157 264.586H159.123" stroke="black" stroke-width="2" stroke-miterlimit="10"/>
<path d="M162.302 258.626H192.772" stroke="black" stroke-width="2" stroke-miterlimit="10"/>
<path d="M159.197 258.626H159.344" stroke="black" stroke-width="2" stroke-miterlimit="10"/>
<path d="M122.157 258.626H159.197" stroke="black" stroke-width="2" stroke-miterlimit="10"/>
<path d="M159.585 222.316H159.042" stroke="black" stroke-width="2" stroke-miterlimit="10"/>
<path d="M159.042 228.08V222.316H162.396V285.278H159.042V228.08Z" stroke="black" stroke-width="2" stroke-miterlimit="10"/>
<path d="M11.2034 163.639H125.214" stroke="black" stroke-width="5" stroke-miterlimit="10"/>
<path d="M629.583 229.953H596.248V224.337H664.494V229.953H632.911" stroke="black" stroke-width="2" stroke-miterlimit="10"/>
<path d="M632.948 282.274H664.398V287.891H596.149V282.274H629.583" stroke="black" stroke-width="2" stroke-miterlimit="10"/>
<path d="M629.213 276.952H629.619" stroke="black" stroke-width="2" stroke-miterlimit="10"/>
<path d="M629.583 282.57H596.347V276.952H629.213" stroke="black" stroke-width="2" stroke-miterlimit="10"/>
<path d="M633.427 276.952H664.595V282.57H632.948" stroke="black" stroke-width="2" stroke-miterlimit="10"/>
<path d="M632.985 276.952H633.427" stroke="black" stroke-width="2" stroke-miterlimit="10"/>
<path d="M629.694 240.89H596.347V235.274H629.583" stroke="black" stroke-width="2" stroke-miterlimit="10"/>
<path d="M633.022 240.89H632.837" stroke="black" stroke-width="2" stroke-miterlimit="10"/>
<path d="M632.908 235.274H664.595V240.89H633.022" stroke="black" stroke-width="2" stroke-miterlimit="10"/>
<path d="M629.62 251.137H596.149V245.521H629.62" stroke="black" stroke-width="2" stroke-miterlimit="10"/>
<path d="M632.876 251.137H632.688" stroke="black" stroke-width="2" stroke-miterlimit="10"/>
<path d="M632.948 245.521H664.398V251.137H632.875" stroke="black" stroke-width="2" stroke-miterlimit="10"/>
<path d="M629.729 261.384H596.347V255.766H629.62" stroke="black" stroke-width="2" stroke-miterlimit="10"/>
<path d="M632.985 255.766H664.595V261.384H632.908" stroke="black" stroke-width="2" stroke-miterlimit="10"/>
<path d="M629.583 266.606H630.654" stroke="black" stroke-width="2" stroke-miterlimit="10"/>
<path d="M629.621 272.224H596.248V266.606H629.583" stroke="black" stroke-width="2" stroke-miterlimit="10"/>
<path d="M632.911 272.224H632.691" stroke="black" stroke-width="2" stroke-miterlimit="10"/>
<path d="M632.875 266.606H664.494V272.224H632.911" stroke="black" stroke-width="2" stroke-miterlimit="10"/>
<path d="M633.133 224.337H629.435V287.891H633.133V224.337Z" stroke="black" stroke-width="2" stroke-miterlimit="10"/>
<path d="M652.563 13.6716H617.058V46.9755H652.563V13.6716Z" stroke="black" stroke-width="2" stroke-miterlimit="10"/>
<path d="M652.563 13.6716H617.058V21.0616H652.563V13.6716Z" stroke="black" stroke-width="2" stroke-miterlimit="10"/>
<path d="M652.563 21.0616H617.058V26.3824H652.563V21.0616Z" stroke="black" stroke-width="2" stroke-miterlimit="10"/>
<path d="M652.563 26.3824H617.058V31.7033H652.563V26.3824Z" stroke="black" stroke-width="2" stroke-miterlimit="10"/>
<path d="M652.563 31.7018H617.058V36.6295H652.563V31.7018Z" stroke="black" stroke-width="2" stroke-miterlimit="10"/>
<path d="M652.563 36.6295H617.058V41.9503H652.563V36.6295Z" stroke="black" stroke-width="2" stroke-miterlimit="10"/>
<path d="M571.394 71.4114H606.899V77.1269V78.7039" stroke="black" stroke-width="5" stroke-miterlimit="10"/>
<path d="M222.261 284.248V292.72H195.829V270.204H222.261V275.771" stroke="black" stroke-miterlimit="10"/>
<path d="M222.261 275.771V276.756" stroke="black" stroke-miterlimit="10"/>
<path d="M222.261 254.488V248.328H195.829V270.204H222.261V263.555" stroke="black" stroke-miterlimit="10"/>
<path d="M222.261 234.387V229.066H195.829V248.328H222.261V241.48" stroke="black" stroke-miterlimit="10"/>
<path d="M568.831 286.611V292.72H596.248V272.224H568.831V276.166" stroke="black" stroke-miterlimit="10"/>
<path d="M568.831 276.166V277.152" stroke="black" stroke-miterlimit="10"/>
<path d="M568.831 267.298V272.224H596.149V251.137H568.831V255.474" stroke="black" stroke-miterlimit="10"/>
<path d="M568.831 255.474V256.656" stroke="black" stroke-miterlimit="10"/>
<path d="M568.831 245.029V251.137H596.248V229.953H568.831V235.767" stroke="black" stroke-miterlimit="10"/>
<path d="M568.831 235.767V236.752" stroke="black" stroke-miterlimit="10"/>
<path d="M205.988 212.904H195.829V221.478H205.988V212.904Z" stroke="black" stroke-miterlimit="10"/>
<path d="M203.846 214.845H195.829V219.449H203.846V214.845Z" stroke="black" stroke-miterlimit="10"/>
<path d="M596.248 214.484H584.216V223.745H596.248V214.484Z" stroke="black" stroke-miterlimit="10"/>
<path d="M592.401 216.503H586.287V221.629H592.401V216.503Z" stroke="black" stroke-miterlimit="10"/>
</svg>
